<svg width="500" height="110" viewBox="0 0 132.292 29.104" xmlns="http://www.w3.org/2000/svg"><g aria-label="Bytegrasp" style="font-weight:600;font-size:25.4px;font-family:Source Code Pro;-inkscape-font-specification:&quot;Source Code Pro, Semi-Bold&quot;;letter-spacing:-.05em;fill:#1b1818;stroke-width:.15"><path d="M41.986 78.466h5.588c3.657 0 6.324-1.549 6.324-4.876 0-2.261-1.346-3.531-3.733-3.937v-.102c1.955-.508 2.87-2.032 2.87-3.607 0-3.048-2.464-4.09-5.893-4.09h-5.156zm2.946-9.779v-4.47h2.007c2.159 0 3.2.559 3.2 2.083 0 1.55-.94 2.387-3.25 2.387zm0 7.417v-5.181h2.337c2.49 0 3.734.71 3.734 2.463 0 1.88-1.296 2.718-3.734 2.718z" style="fill:#c4250f;stroke:#1b1818" transform="translate(-44.878 -60.9) scale(1.0708)"/><path d="M16.427 28.616c3.209 0 4.814-1.877 5.956-4.896l5.576-13.953h-2.965l-2.42 6.555c-.436 1.251-.925 2.638-1.333 3.917h-.11c-.489-1.333-.978-2.72-1.468-3.917l-2.747-6.555h-3.128l5.984 13.192-.326.843c-.544 1.332-1.524 2.284-3.21 2.284-.38 0-.761-.081-1.115-.19l-.598 2.448a6.55 6.55 0 0 0 1.904.272zm21.867-5.168c1.74 0 3.073-.353 4.27-.761l-.598-2.285a8.04 8.04 0 0 1-2.91.544c-2.285 0-3.101-1.006-3.101-3.21v-5.494h6.092V9.767h-6.092V5.58h-2.584l-.408 4.188-3.699.136v2.34h3.563v5.494c0 3.427 1.387 5.711 5.467 5.711zm12.974-11.586c1.904 0 3.1 1.088 3.318 3.263h-7.099c.408-2.148 1.931-3.263 3.78-3.263zm.326 11.586c1.958 0 3.808-.653 5.222-1.577l-1.06-1.959c-1.197.68-2.34 1.116-3.754 1.116-2.475 0-4.243-1.197-4.596-3.672h9.818c.055-.354.136-.952.136-1.578 0-3.699-2.203-6.337-6.174-6.337-3.59 0-6.908 2.638-6.908 6.99 0 4.433 3.236 7.017 7.316 7.017z"/><path d="M102.946 83.978c4.394 0 7.188-1.956 7.188-4.42 0-2.184-1.676-3.047-4.902-3.047h-2.54c-1.55 0-2.362-.356-2.362-1.169 0-.508.254-.863.762-1.168.66.228 1.346.355 1.905.355 2.794 0 5.003-1.473 5.003-4.241 0-.813-.38-1.575-.812-2.058h2.87v-2.235h-5.106c-.584-.203-1.219-.305-1.955-.305-2.744 0-5.131 1.626-5.131 4.496 0 1.473.711 2.59 1.6 3.226v.101c-.914.61-1.499 1.524-1.499 2.337 0 1.042.61 1.677 1.27 2.083v.102c-1.295.71-1.98 1.625-1.98 2.616 0 2.235 2.26 3.327 5.689 3.327zm.05-11.303c-1.295 0-2.362-.914-2.362-2.489 0-1.524 1.067-2.464 2.363-2.464 1.295 0 2.362.94 2.362 2.464 0 1.575-1.067 2.49-2.362 2.49zm.305 9.373c-2.31 0-3.606-.66-3.606-1.778 0-.584.33-1.118 1.219-1.626.508.127 1.092.178 1.905.178h1.981c1.676 0 2.515.254 2.515 1.22 0 1.066-1.575 2.006-4.014 2.006z" style="fill:#c4250f;stroke:#1b1818" transform="translate(-44.878 -60.9) scale(1.0708)"/><path d="M76.073 23.122h3.155v-7.37c1.36-2.585 3.155-3.537 4.977-3.537 1.006 0 1.55.136 2.42.408l.653-2.638c-.788-.38-1.496-.544-2.584-.544-2.311 0-4.324 1.197-5.684 3.345h-.082l-.272-3.019h-2.583zm17.815.326c1.795 0 3.59-.897 5.004-1.985h.082l.244 1.659h2.557v-7.915c0-3.726-2.04-5.766-5.739-5.766-2.284 0-4.488.898-6.092 1.85l1.142 2.094c1.387-.762 2.883-1.415 4.38-1.415 2.175 0 3.072 1.116 3.181 2.612-6.582.462-9.22 1.958-9.22 4.95 0 2.339 1.85 3.916 4.46 3.916zM94.839 21c-1.332 0-2.393-.516-2.393-1.713 0-1.442 1.414-2.42 6.201-2.747v2.828C97.423 20.348 96.172 21 94.84 21zm15.857 2.448c4.053 0 6.256-1.85 6.256-4.134 0-2.121-1.115-3.264-5.386-4.216-2.475-.544-3.48-.87-3.48-1.822 0-.816.706-1.469 2.474-1.469 1.578 0 3.1.49 4.406 1.333l1.442-1.931c-1.36-.898-3.373-1.768-5.576-1.768-3.753 0-5.875 1.66-5.875 3.998 0 2.013 1.605 3.291 5.168 4.026 3.1.652 3.699 1.142 3.699 2.012 0 .898-.87 1.605-2.72 1.605-2.176 0-3.998-.626-5.603-1.686l-1.36 1.985c1.66 1.115 4.053 2.067 6.555 2.067zm8.948 4.95h3.155V24.21l-.163-2.34h.082c1.06 1.007 2.42 1.578 3.644 1.578 3.074 0 5.93-2.638 5.93-7.207 0-4.135-1.986-6.8-5.467-6.8-1.523 0-3.128.789-4.27 1.85h-.082l-.245-1.524h-2.584zm6.066-7.534c-.816 0-1.931-.326-2.91-1.224v-6.01c1.087-1.116 2.148-1.605 3.154-1.605 2.176 0 3.101 1.577 3.101 4.243 0 3.019-1.441 4.596-3.345 4.596z"/></g></svg>